<svg width="34" height="34" viewBox="0 0 34 34" fill="none" xmlns="http://www.w3.org/2000/svg">
<circle cx="17" cy="17" r="17" fill="#B4B4B4"/>
<path fill-rule="evenodd" clip-rule="evenodd" d="M17.6418 10.9324C17.7261 11.0165 17.7929 11.1163 17.8386 11.2262C17.8842 11.3361 17.9076 11.454 17.9076 11.573C17.9076 11.692 17.8842 11.8098 17.8386 11.9197C17.7929 12.0296 17.7261 12.1295 17.6418 12.2135L12.8523 17.0012L17.6418 21.789C17.8117 21.9589 17.9072 22.1893 17.9072 22.4295C17.9072 22.6698 17.8117 22.9002 17.6418 23.0701C17.472 23.2399 17.2416 23.3354 17.0013 23.3354C16.7611 23.3354 16.5307 23.2399 16.3608 23.0701L10.9325 17.6418C10.8482 17.5577 10.7814 17.4579 10.7358 17.348C10.6902 17.2381 10.6667 17.1202 10.6667 17.0012C10.6667 16.8822 10.6902 16.7644 10.7358 16.6545C10.7814 16.5446 10.8482 16.4447 10.9325 16.3607L16.3608 10.9324C16.4448 10.8482 16.5446 10.7813 16.6546 10.7357C16.7645 10.6901 16.8823 10.6666 17.0013 10.6666C17.1203 10.6666 17.2381 10.6901 17.3481 10.7357C17.458 10.7813 17.5578 10.8482 17.6418 10.9324Z" fill="white"/>
<path fill-rule="evenodd" clip-rule="evenodd" d="M23.3342 17.0012C23.3342 17.2411 23.2389 17.4712 23.0692 17.6409C22.8996 17.8106 22.6695 17.9059 22.4295 17.9059L13.3824 17.9059C13.1424 17.9059 12.9123 17.8106 12.7426 17.6409C12.573 17.4712 12.4777 17.2411 12.4777 17.0012C12.4777 16.7612 12.573 16.5311 12.7426 16.3615C12.9123 16.1918 13.1424 16.0965 13.3824 16.0965L22.4295 16.0965C22.6695 16.0965 22.8996 16.1918 23.0692 16.3615C23.2389 16.5311 23.3342 16.7612 23.3342 17.0012Z" fill="white"/>
</svg>
