<svg width="34" height="34" viewBox="0 0 34 34" fill="none" xmlns="http://www.w3.org/2000/svg">
<circle cx="17" cy="17" r="17" transform="rotate(-180 17 17)" fill="#60A626"/>
<path fill-rule="evenodd" clip-rule="evenodd" d="M16.3582 23.0676C16.2739 22.9835 16.2071 22.8837 16.1615 22.7738C16.1158 22.6639 16.0924 22.546 16.0924 22.427C16.0924 22.308 16.1158 22.1902 16.1615 22.0803C16.2071 21.9704 16.2739 21.8705 16.3582 21.7865L21.1477 16.9988L16.3582 12.211C16.1883 12.0411 16.0928 11.8107 16.0928 11.5705C16.0928 11.3302 16.1883 11.0998 16.3582 10.9299C16.528 10.7601 16.7585 10.6646 16.9987 10.6646C17.239 10.6646 17.4694 10.7601 17.6392 10.9299L23.0675 16.3582C23.1518 16.4423 23.2186 16.5421 23.2642 16.652C23.3098 16.7619 23.3333 16.8798 23.3333 16.9988C23.3333 17.1178 23.3098 17.2356 23.2642 17.3455C23.2186 17.4554 23.1518 17.5553 23.0675 17.6393L17.6392 23.0676C17.5552 23.1518 17.4554 23.2187 17.3454 23.2643C17.2355 23.3099 17.1177 23.3334 16.9987 23.3334C16.8797 23.3334 16.7619 23.3099 16.652 23.2643C16.542 23.2187 16.4422 23.1518 16.3582 23.0676V23.0676Z" fill="white"/>
<path fill-rule="evenodd" clip-rule="evenodd" d="M10.6658 16.9988C10.6658 16.7589 10.7611 16.5288 10.9308 16.3591C11.1004 16.1894 11.3305 16.0941 11.5705 16.0941L20.6176 16.0941C20.8576 16.0941 21.0877 16.1894 21.2574 16.3591C21.427 16.5288 21.5223 16.7589 21.5223 16.9988C21.5223 17.2388 21.427 17.4689 21.2574 17.6386C21.0877 17.8082 20.8576 17.9035 20.6176 17.9035L11.5705 17.9035C11.3305 17.9035 11.1004 17.8082 10.9308 17.6385C10.7611 17.4689 10.6658 17.2388 10.6658 16.9988V16.9988Z" fill="white"/>
</svg>
