<svg width="40" height="40" viewBox="0 0 40 40" fill="none" xmlns="http://www.w3.org/2000/svg">
<path d="M12.7598 31.1128C10.4534 31.1128 8.58386 32.9825 8.58386 35.2887C8.58386 37.5951 10.4535 39.4646 12.7598 39.4646C15.0661 39.4646 16.9357 37.595 16.9357 35.2887C16.9358 32.9825 15.0661 31.1128 12.7598 31.1128ZM12.7598 37.6087C11.4785 37.6087 10.4398 36.5701 10.4398 35.2888C10.4398 34.0075 11.4785 32.9689 12.7598 32.9689C14.0411 32.9689 15.0797 34.0075 15.0797 35.2888C15.0798 36.5701 14.0411 37.6087 12.7598 37.6087Z" fill="#232323"/>
<path d="M30.3917 31.1128C28.0854 31.1128 26.2158 32.9825 26.2158 35.2887C26.2158 37.5951 28.0855 39.4646 30.3917 39.4646C32.698 39.4646 34.5677 37.595 34.5677 35.2887C34.5677 32.9825 32.6981 31.1128 30.3917 31.1128ZM30.3917 37.6087C29.1105 37.6087 28.0718 36.5701 28.0718 35.2888C28.0718 34.0075 29.1105 32.9689 30.3917 32.9689C31.673 32.9689 32.7117 34.0075 32.7117 35.2888C32.7118 36.5701 31.673 37.6087 30.3917 37.6087Z" fill="#232323"/>
<path d="M39.8108 6.75302C39.6176 6.54192 39.3532 6.40976 39.0685 6.38179L8.86235 5.96419L8.02716 3.41219C7.43878 1.70621 5.84124 0.554495 4.03676 0.5354H0.927994C0.415461 0.5354 0 0.950862 0 1.46339C0 1.97593 0.415461 2.39139 0.927994 2.39139H4.03676C5.04575 2.41368 5.93422 3.06156 6.26398 4.0154L12.1567 21.7864L11.6928 22.8536C11.1753 24.1881 11.3307 25.6901 12.1104 26.8904C12.8826 28.0693 14.1817 28.7968 15.5904 28.8392H33.6398C34.1524 28.8392 34.5678 28.4237 34.5678 27.9112C34.5678 27.3986 34.1524 26.9832 33.6398 26.9832H15.5903C14.7948 26.9633 14.0625 26.5448 13.6415 25.8696C13.2251 25.2026 13.1396 24.3809 13.4095 23.6423L13.7807 22.8072L33.315 20.7656C35.4607 20.5292 37.2257 18.9686 37.723 16.868L39.9502 7.54167C40.0505 7.2731 39.9972 6.97105 39.8108 6.75302ZM35.9133 16.4505C35.6121 17.8027 34.464 18.8002 33.083 18.9097L13.7807 20.9048L9.46555 7.82018L37.9085 8.23777L35.9133 16.4505Z" fill="#232323"/>
</svg>
